<svg width="80" height="87" viewBox="0 0 80 87" fill="none" xmlns="http://www.w3.org/2000/svg">
<path d="M36.9714 4.86499L28.2715 60.5488L70.5322 67.1516L79.2322 11.4677L36.9714 4.86499Z" fill="#A9AFC4"/>
<path style="mix-blend-mode:multiply" d="M55.8633 9.81445V64.8613L28.2734 60.5488L36.1973 9.81445H55.8633Z" fill="url(#paint0_linear_3874_20082)"/>
<path d="M71.0195 67.8281L27.6016 61.043L36.4844 4.19531L79.9023 10.9805L71.0195 67.8281ZM28.9414 60.0605L70.043 66.4824L78.5625 11.957L37.4609 5.5332L28.9414 60.0605Z" fill="#5E6175"/>
<path d="M52.6953 12.9844V69.3438H9.92383V21.4824L18.0039 12.9844H52.6953Z" fill="#DEE1EC"/>
<path style="mix-blend-mode:multiply" d="M68.2402 18.7832V66.793L52.6953 64.3652V69.3418H19.1309V18.7832H68.2402Z" fill="url(#paint1_linear_3874_20082)"/>
<path d="M19.2754 22.8613H9.33594V21.2988L17.75 12.3926H19.2734L19.2754 22.8613ZM10.5859 21.6895H18.1035V13.7266L10.5859 21.6895Z" fill="#5E6175"/>
<path d="M8.22122 11.3296L7.39258 12.1582L9.94341 14.709L10.7721 13.8804L8.22122 11.3296Z" fill="#5E6175"/>
<path d="M8.4668 16.6836H4.85938V17.8555H8.4668V16.6836Z" fill="#5E6175"/>
<path d="M13.7012 8.69727H12.5293V12.3047H13.7012V8.69727Z" fill="#5E6175"/>
<path d="M65.4795 86.8086C64.851 86.807 64.2438 86.5801 63.7682 86.1691C63.2927 85.758 62.9803 85.1901 62.8877 84.5684C62.8092 84.0383 62.8947 83.4969 63.1329 83.0169C63.371 82.5369 63.7504 82.1413 64.22 81.8832C64.6896 81.6251 65.2269 81.5169 65.7598 81.5731C66.2926 81.6293 66.7956 81.8472 67.2009 82.1976C67.6063 82.548 67.8948 83.0141 68.0275 83.5332C68.1603 84.0524 68.131 84.5997 67.9436 85.1017C67.7562 85.6037 67.4196 86.0363 66.9791 86.3414C66.5387 86.6466 66.0154 86.8096 65.4795 86.8086ZM65.4893 82.7324C65.2804 82.7322 65.074 82.777 64.8839 82.8637C64.6939 82.9504 64.5248 83.0769 64.388 83.2348C64.2513 83.3927 64.1501 83.5782 64.0914 83.7786C64.0327 83.979 64.0179 84.1898 64.0479 84.3965C64.0883 84.6718 64.2069 84.9297 64.3895 85.1396C64.5722 85.3494 64.8113 85.5024 65.0784 85.5804C65.3454 85.6584 65.6293 85.6581 65.8962 85.5795C66.1631 85.5008 66.4018 85.3473 66.584 85.1369C66.7662 84.9266 66.8841 84.6684 66.9239 84.3931C66.9636 84.1177 66.9234 83.8367 66.8081 83.5834C66.6928 83.3302 66.5073 83.1154 66.2735 82.9646C66.0397 82.8137 65.7675 82.7331 65.4893 82.7324ZM75.0752 77.1621C74.5944 77.1613 74.13 76.9873 73.767 76.6721C73.404 76.3568 73.1667 75.9213 73.0987 75.4453C73.0389 75.0411 73.1042 74.6282 73.2859 74.2622C73.4676 73.8962 73.757 73.5945 74.1151 73.3977C74.4733 73.201 74.8831 73.1185 75.2894 73.1615C75.6958 73.2044 76.0793 73.3707 76.3884 73.638C76.6976 73.9052 76.9175 74.2607 77.0187 74.6566C77.1199 75.0525 77.0975 75.4699 76.9545 75.8527C76.8115 76.2356 76.5548 76.5655 76.2189 76.7981C75.883 77.0308 75.4839 77.1551 75.0752 77.1543V77.1621ZM74.2588 75.2832C74.2777 75.4187 74.3297 75.5475 74.4104 75.6581C74.491 75.7686 74.5978 75.8575 74.7211 75.9168C74.8444 75.9762 74.9804 76.0041 75.1171 75.9981C75.2538 75.9922 75.387 75.9525 75.5046 75.8827C75.6223 75.8128 75.7209 75.715 75.7916 75.5979C75.8623 75.4807 75.903 75.3479 75.91 75.2112C75.917 75.0746 75.8901 74.9383 75.8317 74.8146C75.7733 74.6908 75.6852 74.5834 75.5752 74.502C75.4441 74.4036 75.2867 74.3464 75.123 74.3376C74.9593 74.3287 74.7967 74.3687 74.6558 74.4523C74.5148 74.536 74.4018 74.6596 74.3312 74.8075C74.2605 74.9554 74.2353 75.121 74.2588 75.2832Z" fill="#5E6175"/>
<path d="M6.48242 80.8262C8.11153 80.8262 9.67392 81.4733 10.8259 82.6253C11.9778 83.7773 12.625 85.3396 12.625 86.9688C12.6247 86.162 12.7835 85.3631 13.0921 84.6178C13.4007 83.8724 13.8531 83.1952 14.4235 82.6247C14.994 82.0543 15.6712 81.6018 16.4166 81.2932C17.162 80.9846 17.9608 80.8259 18.7676 80.8262C17.1385 80.8262 15.5761 80.179 14.4241 79.0271C13.2722 77.8751 12.625 76.3127 12.625 74.6836C12.625 76.3127 11.9778 77.8751 10.8259 79.0271C9.67392 80.179 8.11153 80.8262 6.48242 80.8262ZM0.767578 62.4473C1.32686 62.4478 1.86309 62.6702 2.25856 63.0657C2.65403 63.4611 2.87644 63.9974 2.87695 64.5566C2.8767 64.2797 2.93102 64.0055 3.03681 63.7496C3.1426 63.4937 3.29779 63.2611 3.49351 63.0652C3.68923 62.8693 3.92164 62.7139 4.17745 62.6079C4.43326 62.5018 4.70746 62.4473 4.98438 62.4473C4.70762 62.4473 4.43358 62.3928 4.1779 62.2868C3.92221 62.1809 3.68989 62.0257 3.4942 61.83C3.29851 61.6343 3.14328 61.402 3.03737 61.1463C2.93146 60.8906 2.87695 60.6166 2.87695 60.3398C2.87644 60.8989 2.65397 61.435 2.25844 61.8301C1.86291 62.2253 1.32668 62.4473 0.767578 62.4473Z" fill="#9A9A9A"/>
<path d="M33.0156 8.80289L31.8633 8.59391L32.0703 7.44157L33.2227 7.6486L33.0156 8.80289ZM33.5684 5.71891L32.416 5.5236C32.5371 4.84586 32.5684 4.63688 32.6562 4.32047L33.7852 4.63492C33.7109 4.89664 33.6875 5.06461 33.5684 5.71891ZM53.2207 4.08219L52.0645 3.88688L52.2598 2.72867L53.418 2.92399L53.2207 4.08219ZM50.1367 3.5861L48.9805 3.39078L49.1758 2.23258L50.334 2.42789L50.1367 3.5861ZM34.5664 3.12516L33.6621 2.38102C33.9406 2.04134 34.2608 1.73816 34.6152 1.47868L35.3125 2.42203C35.0354 2.62428 34.7847 2.8605 34.5664 3.12516ZM47.0527 3.08219L45.8965 2.88688L46.0918 1.72867L47.248 1.92399L47.0527 3.08219ZM43.9688 2.57828L42.8106 2.38297L43.0059 1.22477L44.1621 1.42008L43.9688 2.57828ZM40.8848 2.07438L39.7266 1.87907L39.9219 0.720863L41.0781 0.916175L40.8848 2.07438ZM36.8535 1.71696L36.5977 0.572425C37.027 0.477041 37.4666 0.435056 37.9063 0.447425L37.873 1.6193C37.5304 1.60869 37.1879 1.6415 36.8535 1.71696Z" fill="#A9AFC4"/>
<path d="M53.2812 69.9297H9.33594V21.248L17.752 12.3984H53.2812V69.9297ZM10.5078 68.7578H52.1094V13.5703H18.2559L10.5078 21.7168V68.7578Z" fill="#5E6175"/>
<path d="M65.0723 21.9512H22.2988V78.3105H65.0723V21.9512Z" fill="#F5F5F5"/>
<path d="M65.6582 78.8984H21.7129V21.3652H65.6582V78.8984ZM22.8848 77.7266H64.4863V22.5371H22.8848V77.7266Z" fill="#5E6175"/>
<path d="M56.7207 32.2109H30.6504V34.7539H56.7207V32.2109Z" fill="#DEE1EC"/>
<path d="M56.7207 41.1641H30.6504V43.707H56.7207V41.1641Z" fill="#DEE1EC"/>
<path d="M56.7207 50.1152H30.6504V52.6582H56.7207V50.1152Z" fill="#DEE1EC"/>
<path d="M43.6855 59.0684H30.6504V61.6113H43.6855V59.0684Z" fill="#DEE1EC"/>
<defs>
<linearGradient id="paint0_linear_3874_20082" x1="28.2734" y1="37.3379" x2="55.8633" y2="37.3379" gradientUnits="userSpaceOnUse">
<stop stop-color="#CACFDD"/>
<stop offset="1" stop-color="#EEF0F1"/>
</linearGradient>
<linearGradient id="paint1_linear_3874_20082" x1="19.1309" y1="44.0625" x2="68.2402" y2="44.0625" gradientUnits="userSpaceOnUse">
<stop stop-color="#CACFDD"/>
<stop offset="1" stop-color="#EEF0F1"/>
</linearGradient>
</defs>
</svg>
