<svg width="100" height="100" viewBox="0 0 100 100" fill="none" xmlns="http://www.w3.org/2000/svg">
<path d="M84.0489 21.0175L81.4414 23.625L82.27 24.4536L84.8775 21.8462L84.0489 21.0175Z" fill="#5E6175"/>
<path d="M79.4023 18.4219H78.2305V22.1094H79.4023V18.4219Z" fill="#5E6175"/>
<path d="M87.5762 26.2734H83.8887V27.4453H87.5762V26.2734Z" fill="#5E6175"/>
<path d="M83.1094 69.0352V75.7813C83.1094 76.7667 82.9153 77.7425 82.5382 78.6529C82.1611 79.5633 81.6083 80.3905 80.9115 81.0873C80.2147 81.7841 79.3875 82.3369 78.4771 82.714C77.5667 83.0911 76.5909 83.2852 75.6055 83.2852H29.5391C31.5234 83.2668 33.4212 82.4703 34.8242 81.0669C36.2271 79.6636 37.0232 77.7656 37.041 75.7813V69.0371L83.1094 69.0352Z" fill="url(#paint0_linear_356_52742)"/>
<path style="mix-blend-mode:multiply" d="M83.1094 69.0352V75.7812C83.1094 76.7667 82.9153 77.7425 82.5382 78.6529C82.1611 79.5633 81.6083 80.3905 80.9115 81.0873C80.2147 81.7841 79.3875 82.3368 78.4771 82.714C77.5667 83.0911 76.5909 83.2852 75.6055 83.2852H64.5C64.6953 82.8301 64.0879 83.9238 72.6855 69.0273L83.1094 69.0352Z" fill="url(#paint1_linear_356_52742)"/>
<path d="M37.043 69.0391V75.7832C37.059 76.7787 36.8768 77.7674 36.507 78.6918C36.1371 79.6162 35.587 80.4577 34.8887 81.1673C34.1904 81.877 33.3579 82.4406 32.4396 82.8253C31.5213 83.21 30.5357 83.4082 29.54 83.4082C28.5444 83.4082 27.5588 83.21 26.6405 82.8253C25.7222 82.4406 24.8897 81.877 24.1913 81.1673C23.493 80.4577 22.9429 79.6162 22.5731 78.6918C22.2032 77.7674 22.021 76.7787 22.0371 75.7832V69.0391H37.043Z" fill="url(#paint2_linear_356_52742)"/>
<path d="M7.03125 25.459H22.0371V18.7109C22.0532 17.7154 21.871 16.7267 21.5011 15.8023C21.1313 14.8779 20.5812 14.0364 19.8829 13.3268C19.1846 12.6171 18.352 12.0535 17.4337 11.6688C16.5155 11.2841 15.5298 11.0859 14.5342 11.0859C13.5386 11.0859 12.5529 11.2841 11.6346 11.6688C10.7163 12.0535 9.88379 12.6171 9.18549 13.3268C8.48718 14.0364 7.93708 14.8779 7.56724 15.8023C7.19739 16.7267 7.01519 17.7154 7.03125 18.7109V25.459Z" fill="url(#paint3_linear_356_52742)"/>
<path d="M67.0176 23.3281L66.3281 24.0254L72.668 29.6113V69.0449H37.043V75.7832C37.059 76.7787 36.8768 77.7674 36.507 78.6918C36.1371 79.6162 35.587 80.4577 34.8887 81.1674C34.1904 81.877 33.3579 82.4406 32.4396 82.8253C31.5213 83.21 30.5357 83.4082 29.54 83.4082C28.5444 83.4082 27.5588 83.21 26.6405 82.8253C25.7222 82.4406 24.8897 81.877 24.1913 81.1674C23.493 80.4577 22.9429 79.6162 22.5731 78.6918C22.2032 77.7674 22.021 76.7787 22.0371 75.7832V62.1113L28.916 55.623L28.5898 55.293H22.0371V18.7109C22.0361 16.7211 21.2448 14.8132 19.8372 13.4067C18.4296 12.0002 16.5211 11.2104 14.5312 11.2109H65.1621C67.1519 11.2104 69.0605 12.0002 70.4681 13.4067C71.8756 14.8132 72.6669 16.7211 72.668 18.7109V23.3281H67.0176Z" fill="#F5F5F5"/>
<path d="M29.5391 83.877C25.1543 83.877 21.4512 80.166 21.4512 75.7871V61.8555L27.7891 55.8769H21.4512V18.7109C21.4486 16.877 20.7185 15.119 19.4212 13.8227C18.1238 12.5265 16.3652 11.7979 14.5312 11.7969V10.625H65.1621C67.3067 10.6265 69.3631 11.4788 70.8801 12.9947C72.3971 14.5106 73.2508 16.5664 73.2539 18.7109V23.9141H67.2617L67.1836 23.9922L73.2539 29.3398V69.625H37.6289V75.7832C37.6289 80.1719 33.9238 83.877 29.5391 83.877ZM22.623 62.3613V75.7832C22.623 79.5332 25.791 82.7012 29.5391 82.7012C33.2871 82.7012 36.457 79.5332 36.457 75.7832V68.4531H72.082V29.8691L65.4727 24.0449L66.7754 22.7422H72.082V18.7109C72.0794 16.877 71.3494 15.119 70.052 13.8227C68.7547 12.5265 66.9961 11.7979 65.1621 11.7969H18.7227C19.9134 12.5161 20.8985 13.5303 21.5828 14.7415C22.2671 15.9526 22.6274 17.3198 22.6289 18.7109V54.7051H28.8379L29.7617 55.6328L22.623 62.3613Z" fill="#5E6175"/>
<path d="M62.5 28.6758H55.0879L51.959 25.5449L52.7871 24.7168L55.5742 27.5039H62.0137L66.7754 22.7422H72.668V23.9141H67.2617L62.5 28.6758Z" fill="#5E6175"/>
<path d="M79.0469 31.7266L73.3984 26.3867H79.0469V31.7266Z" fill="#F5F5F5"/>
<path d="M22.623 26.0456H6.44531V18.7116C6.42864 17.6388 6.62555 16.5734 7.02457 15.5774C7.42359 14.5814 8.01675 13.6747 8.76953 12.9102C9.5223 12.1456 10.4196 11.5384 11.4093 11.124C12.399 10.7095 13.4612 10.4961 14.5342 10.4961C15.6071 10.4961 16.6694 10.7095 17.659 11.124C18.6487 11.5384 19.5461 12.1456 20.2988 12.9102C21.0516 13.6747 21.6448 14.5814 22.0438 15.5774C22.4428 16.5734 22.6397 17.6388 22.623 18.7116V26.0456ZM7.61719 24.8737H21.4512V18.7116C21.4666 17.7935 21.2991 16.8815 20.9584 16.0288C20.6177 15.176 20.1107 14.3997 19.4668 13.7449C18.823 13.0902 18.0553 12.5702 17.2084 12.2152C16.3615 11.8602 15.4524 11.6774 14.5342 11.6774C13.6159 11.6774 12.7068 11.8602 11.86 12.2152C11.0131 12.5702 10.2453 13.0902 9.60151 13.7449C8.95768 14.3997 8.45064 15.176 8.10996 16.0288C7.76927 16.8815 7.60176 17.7935 7.61719 18.7116V24.8737ZM29.5391 83.8757V82.7038C33.2891 82.7038 36.457 79.5359 36.457 75.7859V68.4519H83.6953V75.7819C83.6925 77.8347 82.9106 79.8099 81.5075 81.3083C80.1044 82.8067 78.1849 83.7166 76.1367 83.8542C76.1348 83.8894 78.4258 83.8757 29.5391 83.8757ZM33.666 82.7038H75.6055C77.4403 82.7018 79.1993 81.9717 80.4963 80.6739C81.7933 79.3762 82.5224 77.6167 82.5234 75.7819V69.6237H37.6289V75.7819C37.6145 77.1781 37.2428 78.5473 36.5491 79.7591C35.8553 80.9708 34.8628 81.9846 33.666 82.7038Z" fill="#5E6175"/>
<path d="M45.582 64.9629L41.873 61.252H33.7207L28.3457 55.8789H22.0371V54.707H28.832L34.2051 60.0801H42.3574L46.4102 64.1328L45.582 64.9629Z" fill="#5E6175"/>
<path d="M16.8457 62.9883L21.3848 58.4492H16.8457V62.9883Z" fill="#F5F5F5"/>
<path d="M79.6328 33.0859L71.9238 25.8008H79.6328V33.0859ZM74.8711 26.9727L78.4609 30.3672V26.9727H74.8711ZM16.2598 64.4023V57.8633H22.7988L16.2598 64.4023ZM17.4316 59.0352V61.5742L19.9707 59.0352H17.4316Z" fill="#5E6175"/>
<path d="M43.1648 34.2854L36.9307 40.5195L39.0409 42.6298L45.2751 36.3957L43.1648 34.2854Z" fill="#5E6175"/>
<path d="M39.0409 34.2882L36.9307 36.3984L43.1648 42.6326L45.2751 40.5223L39.0409 34.2882Z" fill="#5E6175"/>
<path d="M57.6746 34.2854L51.4404 40.5195L53.5507 42.6298L59.7848 36.3957L57.6746 34.2854Z" fill="#5E6175"/>
<path d="M53.5507 34.2882L51.4404 36.3984L57.6746 42.6326L59.7848 40.5223L53.5507 34.2882Z" fill="#5E6175"/>
<path d="M80.4687 62.6719H79.2969V61.5H80.4687V62.6719ZM80.4687 59.5469H79.2969V58.375H80.4687V59.5469ZM80.4687 56.4219H79.2969V55.25H80.4687V56.4219ZM80.4687 53.2969H79.2969V52.125H80.4687V53.2969ZM80.4687 50.1719H79.2969V49H80.4687V50.1719ZM80.4687 47.0469H79.2969V45.875H80.4687V47.0469ZM80.4687 43.9219H79.2969V42.75H80.4687V43.9219ZM80.4687 40.7969H79.2969V39.625H80.4687V40.7969ZM80.4687 37.6719H79.2969V36.5H80.4687V37.6719ZM18.1113 88.2187H16.9395V87.0469H18.1113V88.2187ZM18.1113 85.0937H16.9395V83.9219H18.1113V85.0937ZM18.1113 81.9687H16.9395V80.7969H18.1113V81.9687ZM18.1113 78.8437H16.9395V77.6719H18.1113V78.8437ZM18.1113 75.7187H16.9395V74.5469H18.1113V75.7187ZM18.1113 72.5937H16.9395V71.4219H18.1113V72.5937ZM18.1113 69.4687H16.9395V68.2969H18.1113V69.4687ZM65.0664 88.2969H63.8945V87.125H65.0664V88.2969ZM61.9414 88.2969H60.7695V87.125H61.9414V88.2969ZM58.8164 88.2969H57.6445V87.125H58.8164V88.2969ZM55.6914 88.2969H54.5195V87.125H55.6914V88.2969ZM52.5664 88.2969H51.3945V87.125H52.5664V88.2969ZM49.4414 88.2969H48.2695V87.125H49.4414V88.2969ZM46.3164 88.2969H45.1445V87.125H46.3164V88.2969ZM43.1914 88.2969H42.0195V87.125H43.1914V88.2969ZM40.0664 88.2969H38.8945V87.125H40.0664V88.2969ZM36.9414 88.2969H35.7695V87.125H36.9414V88.2969ZM33.8164 88.2969H32.6445V87.125H33.8164V88.2969ZM30.6914 88.2969H29.5195V87.125H30.6914V88.2969ZM27.5664 88.2969H26.3945V87.125H27.5664V88.2969ZM24.4414 88.2969H23.2695V87.125H24.4414V88.2969ZM21.3164 88.2969H20.1445V87.125H21.3164V88.2969Z" fill="#A9AFC4"/>
<path d="M15.7871 42.3438C15.4227 42.3441 15.0663 42.2364 14.7631 42.0342C14.4599 41.8319 14.2236 41.5443 14.0839 41.2077C13.9443 40.8711 13.9077 40.5006 13.9787 40.1431C14.0497 39.7857 14.2251 39.4573 14.4828 39.1996C14.7405 38.9419 15.0689 38.7665 15.4263 38.6955C15.7838 38.6244 16.1543 38.6611 16.4909 38.8007C16.8275 38.9404 17.1151 39.1767 17.3174 39.4799C17.5196 39.7831 17.6273 40.1395 17.627 40.5039C17.6264 40.9917 17.4324 41.4594 17.0875 41.8043C16.7426 42.1492 16.2749 42.3432 15.7871 42.3438ZM15.7871 39.834C15.6545 39.8336 15.5248 39.8726 15.4144 39.9459C15.304 40.0193 15.2178 40.1238 15.1668 40.2462C15.1158 40.3686 15.1022 40.5033 15.1279 40.6334C15.1535 40.7635 15.2171 40.883 15.3108 40.9769C15.4044 41.0708 15.5237 41.1348 15.6537 41.1608C15.7837 41.1868 15.9185 41.1737 16.0411 41.123C16.1636 41.0724 16.2683 40.9865 16.342 40.8763C16.4157 40.7661 16.4551 40.6365 16.4551 40.5039C16.452 40.3284 16.3804 40.1611 16.2556 40.0377C16.1308 39.9144 15.9626 39.8447 15.7871 39.8438V39.834ZM9.96094 51.5781C9.4616 51.5789 8.97326 51.4315 8.55773 51.1546C8.14219 50.8777 7.81815 50.4838 7.62662 50.0226C7.43508 49.5615 7.38466 49.0539 7.48175 48.5641C7.57883 48.0743 7.81905 47.6243 8.172 47.271C8.52495 46.9178 8.97476 46.6773 9.46449 46.5798C9.95423 46.4823 10.4619 46.5323 10.9232 46.7235C11.3845 46.9147 11.7787 47.2384 12.0559 47.6538C12.3331 48.0691 12.4809 48.5573 12.4805 49.0566C12.48 49.7249 12.2144 50.3656 11.7421 50.8383C11.2697 51.311 10.6292 51.5771 9.96094 51.5781ZM9.96094 47.7051C9.69362 47.7051 9.43231 47.7843 9.21005 47.9329C8.98779 48.0814 8.81455 48.2925 8.71226 48.5394C8.60996 48.7864 8.5832 49.0581 8.63535 49.3203C8.6875 49.5825 8.81622 49.8233 9.00524 50.0123C9.19426 50.2014 9.43508 50.3301 9.69726 50.3822C9.95944 50.4344 10.2312 50.4076 10.4782 50.3053C10.7251 50.203 10.9362 50.0298 11.0847 49.8075C11.2332 49.5853 11.3125 49.324 11.3125 49.0566C11.3125 48.6982 11.1701 48.3544 10.9166 48.1009C10.6632 47.8475 10.3194 47.7051 9.96094 47.7051Z" fill="#5E6175"/>
<path d="M37 49.5C46.4471 55.4989 51.4611 55.2343 60 49.5" stroke="#5E6175"/>
<defs>
<linearGradient id="paint0_linear_356_52742" x1="29.5391" y1="76.1621" x2="83.1094" y2="76.1621" gradientUnits="userSpaceOnUse">
<stop stop-color="#CACFDD"/>
<stop offset="1" stop-color="#EEF0F1"/>
</linearGradient>
<linearGradient id="paint1_linear_356_52742" x1="64.5" y1="76.1621" x2="83.1094" y2="76.1621" gradientUnits="userSpaceOnUse">
<stop stop-color="#CACFDD"/>
<stop offset="1" stop-color="#EEF0F1"/>
</linearGradient>
<linearGradient id="paint2_linear_356_52742" x1="22.0371" y1="76.166" x2="37.043" y2="76.166" gradientUnits="userSpaceOnUse">
<stop stop-color="#CACFDD"/>
<stop offset="1" stop-color="#EEF0F1"/>
</linearGradient>
<linearGradient id="paint3_linear_356_52742" x1="7.03125" y1="18.3339" x2="22.0371" y2="18.3339" gradientUnits="userSpaceOnUse">
<stop stop-color="#CACFDD"/>
<stop offset="1" stop-color="#EEF0F1"/>
</linearGradient>
</defs>
</svg>
