<svg width="76" height="84" viewBox="0 0 76 84" fill="none" xmlns="http://www.w3.org/2000/svg">
<path d="M18.061 27.8711C16.8647 27.6573 15.8021 26.9777 15.1064 25.9814C14.4107 24.985 14.1387 23.7533 14.3501 22.5566C14.4309 22.1138 14.4234 21.6595 14.3281 21.2196C14.2328 20.7797 14.0515 20.3629 13.7947 19.9932C13.538 19.6236 13.2107 19.3083 12.8317 19.0654C12.4527 18.8226 12.0295 18.657 11.5864 18.5781C9.10203 18.0703 7.44187 15.6816 7.87547 13.25L9.02976 13.4453C8.70945 15.2559 9.95554 17.0391 11.8091 17.418C13.003 17.634 14.0627 18.3144 14.7561 19.3101C15.4494 20.3058 15.7199 21.5357 15.5083 22.7305C15.4281 23.1731 15.4359 23.6272 15.5315 24.0668C15.627 24.5064 15.8083 24.9228 16.0651 25.2922C16.3218 25.6615 16.6489 25.9767 17.0276 26.2194C17.4062 26.4622 17.8291 26.6279 18.272 26.707L18.061 27.8711ZM29.0493 27.2988C28.4151 26.7084 27.9035 25.9987 27.5437 25.2104C27.184 24.4222 26.9831 23.5707 26.9527 22.7047C26.9222 21.8388 27.0627 20.9753 27.3661 20.1637C27.6696 19.352 28.13 18.6082 28.7212 17.9746C30.6743 15.9668 30.7446 12.4395 28.4536 10.3027C25.852 7.76367 25.7192 3.57227 28.1274 0.974609L28.9848 1.77148C26.9966 3.91016 27.1216 7.35742 29.2641 9.45508C32.022 12.0273 31.9634 16.3262 29.5669 18.7852C28.5905 19.8385 28.0718 21.2361 28.1245 22.6714C28.1772 24.1067 28.7971 25.4625 29.8481 26.4414L29.0493 27.2988ZM40.8989 33.082C39.724 31.4165 39.2587 29.3526 39.6052 27.344C39.9517 25.3355 41.0816 23.5468 42.7466 22.3711C44.1572 21.3723 45.114 19.8547 45.407 18.1513C45.6999 16.4478 45.3051 14.6978 44.3091 13.2852L45.268 12.6113C46.4414 14.2782 46.9056 16.3425 46.5588 18.3512C46.2121 20.3599 45.0827 22.1491 43.4184 23.3262C42.7187 23.8197 42.1231 24.4464 41.6658 25.1703C41.2085 25.8942 40.8984 26.7013 40.7532 27.5452C40.6081 28.3891 40.6308 29.2533 40.82 30.0884C41.0092 30.9235 41.3612 31.7132 41.8559 32.4121L40.8989 33.082Z" fill="#5E6175"/>
<path d="M70.2478 42.1152L65.9138 71.1133C65.6943 72.586 64.9532 73.9308 63.8254 74.903C62.6976 75.8752 61.2582 76.41 59.7693 76.4102H59.4587C60.0032 76.4098 60.5408 76.2882 61.0325 76.0543C61.5243 75.8204 61.9578 75.48 62.3016 75.0578C62.6455 74.6356 62.8911 74.1422 63.0206 73.6133C63.1501 73.0844 63.1604 72.5333 63.0505 72L57.7048 46.1211C57.4975 45.1276 56.9545 44.2357 56.167 43.5954C55.3795 42.9552 54.3955 42.6056 53.3806 42.6055H22.1833L19.5759 38.3086C19.1823 37.6608 18.6286 37.1252 17.9681 36.7534C17.3076 36.3815 16.5624 36.186 15.8044 36.1855H14.3318C14.1782 35.5372 14.1733 34.8624 14.3177 34.2119C14.462 33.5614 14.7517 32.952 15.1651 32.4294C15.5785 31.9068 16.1049 31.4846 16.7047 31.1944C17.3046 30.9043 17.9623 30.7536 18.6287 30.7539H26.0955C26.841 30.7542 27.5744 30.9431 28.2273 31.3031C28.8802 31.663 29.4315 32.1823 29.8298 32.8125L32.5017 37.0488H65.8806C66.5155 37.0489 67.1428 37.1859 67.7199 37.4504C68.297 37.7149 68.8103 38.1008 69.2248 38.5816C69.6393 39.0625 69.9452 39.627 70.1218 40.2368C70.2983 40.8466 70.3413 41.4873 70.2478 42.1152Z" fill="url(#paint0_linear_3874_42087)"/>
<path style="mix-blend-mode:multiply" d="M70.248 42.1152L68.9922 50.5137C65.7139 49.8228 62.7144 48.1744 60.3738 45.7774C58.0331 43.3804 56.4565 40.3426 55.8438 37.0488H65.875C66.5103 37.0481 67.1383 37.1844 67.7162 37.4486C68.294 37.7127 68.808 38.0984 69.2231 38.5794C69.6383 39.0603 69.9447 39.6252 70.1216 40.2354C70.2985 40.8456 70.3416 41.4868 70.248 42.1152Z" fill="url(#paint1_linear_3874_42087)"/>
<path d="M59.4583 76.4102H12.9427C11.9279 76.4103 10.9441 76.0608 10.1568 75.4204C9.36957 74.7801 8.82699 73.8881 8.62044 72.8945L2.13216 41.4941C1.99965 40.8521 2.01176 40.1886 2.16761 39.5518C2.32345 38.915 2.61913 38.3209 3.03317 37.8126C3.44721 37.3043 3.96923 36.8946 4.56134 36.6131C5.15345 36.3317 5.80079 36.1856 6.45638 36.1855H15.804C16.5622 36.1854 17.3076 36.3805 17.9685 36.752C18.6294 37.1235 19.1835 37.6589 19.5775 38.3066L22.1849 42.6035H53.3802C54.3951 42.6037 55.3791 42.9532 56.1666 43.5935C56.9541 44.2337 57.4971 45.1256 57.7044 46.1191L63.0501 72C63.16 72.5333 63.1497 73.0844 63.0202 73.6133C62.8907 74.1422 62.6451 74.6356 62.3012 75.0578C61.9574 75.48 61.5239 75.8204 61.0322 76.0543C60.5404 76.2882 60.0028 76.4098 59.4583 76.4102Z" fill="#DEE1EC"/>
<path d="M59.4589 76.9961H12.9432C11.7935 76.9923 10.6799 76.594 9.78867 75.8677C8.89741 75.1414 8.2825 74.1312 8.04675 73.0059L1.56237 41.6133C1.41215 40.8859 1.42578 40.1343 1.60228 39.4129C1.77877 38.6915 2.1137 38.0184 2.58275 37.4426C3.05179 36.8668 3.64318 36.4026 4.31397 36.0838C4.98476 35.765 5.71812 35.5996 6.46081 35.5996H15.8046C16.6618 35.6017 17.5043 35.8231 18.2519 36.2425C18.9995 36.6619 19.6274 37.2656 20.076 37.9961L22.5135 42.0039H53.3729C54.5254 42.007 55.6418 42.4061 56.535 43.1343C57.4282 43.8626 58.044 44.8757 58.2792 46.0039L63.6249 71.8828C63.7524 72.5013 63.7407 73.1405 63.5905 73.7539C63.4403 74.3673 63.1555 74.9395 62.7566 75.4291C62.3577 75.9187 61.8548 76.3134 61.2844 76.5844C60.714 76.8554 60.0904 76.9961 59.4589 76.9961ZM6.46081 36.7715C5.89286 36.7725 5.33225 36.8998 4.81962 37.1443C4.30698 37.3887 3.85516 37.7442 3.49691 38.1849C3.13866 38.6256 2.88296 39.1405 2.74835 39.6923C2.61374 40.244 2.60358 40.8188 2.71862 41.375L9.19323 72.7617C9.37429 73.6232 9.8454 74.3964 10.5279 74.9524C11.2104 75.5083 12.063 75.8133 12.9432 75.8164H59.4589C59.917 75.8165 60.3694 75.7144 60.7831 75.5176C61.1968 75.3208 61.5615 75.0343 61.8505 74.6788C62.1395 74.3234 62.3457 73.908 62.454 73.4628C62.5622 73.0177 62.5699 72.554 62.4764 72.1055L57.1307 46.2266C56.95 45.3644 56.4788 44.5905 55.7958 44.0341C55.1129 43.4777 54.2597 43.1727 53.3788 43.1699H21.8592L19.0819 38.5977C18.7365 38.0393 18.2541 37.5784 17.6805 37.2588C17.1069 36.9392 16.4612 36.7714 15.8046 36.7715H6.46081Z" fill="#5E6175"/>
<path d="M59.7688 76.9961H59.4583V75.8242C59.9164 75.8243 60.3688 75.7222 60.7825 75.5254C61.1963 75.3287 61.5609 75.0421 61.8499 74.6867C62.139 74.3312 62.3451 73.9158 62.4534 73.4706C62.5617 73.0255 62.5694 72.5618 62.4759 72.1133L57.1302 46.2344C56.9494 45.3723 56.4782 44.5983 55.7953 44.0419C55.1123 43.4856 54.2591 43.1805 53.3782 43.1778H21.8587L19.0814 38.6055C18.7368 38.0456 18.2549 37.5832 17.6812 37.2622C17.1076 36.9412 16.4614 36.7723 15.804 36.7715H13.8665L13.761 36.3203C13.5875 35.5859 13.5823 34.8218 13.746 34.0851C13.9097 33.3485 14.2379 32.6584 14.7061 32.0666C15.1743 31.4747 15.7703 30.9965 16.4495 30.6677C17.1288 30.3389 17.8736 30.1681 18.6282 30.168H26.095C26.9399 30.1653 27.7716 30.378 28.5115 30.786C29.2514 31.1941 29.875 31.784 30.3235 32.5L32.8255 36.4629H65.8802C66.5993 36.4632 67.3099 36.6185 67.9635 36.9183C68.6172 37.2181 69.1985 37.6553 69.6679 38.2001C70.1372 38.7449 70.4836 39.3845 70.6834 40.0753C70.8832 40.7661 70.9316 41.4919 70.8255 42.2031C70.8255 42.2227 70.9231 41.5586 66.4935 71.2012C66.2457 72.8094 65.4324 74.2765 64.1997 75.3387C62.9671 76.4009 61.396 76.9886 59.7688 76.9961ZM22.513 42.0117H53.3724C54.5237 42.0144 55.6393 42.4124 56.5324 43.1391C57.4254 43.8658 58.0419 44.8771 58.2786 46.0039L63.6243 71.8828C63.8109 72.7865 63.6985 73.7264 63.304 74.5606C64.3984 73.6779 65.1224 72.4174 65.3333 71.0274L69.6673 42.0293C69.7484 41.4847 69.7112 40.9291 69.5582 40.4002C69.4051 39.8713 69.1398 39.3816 68.7804 38.9645C68.421 38.5475 67.9758 38.2128 67.4753 37.9833C66.9748 37.7538 66.4308 37.635 65.8802 37.6348H32.1771L29.3313 33.125C28.9875 32.5771 28.5098 32.1256 27.9433 31.8133C27.3767 31.501 26.74 31.3381 26.0931 31.3399H18.6263C18.0876 31.3409 17.5553 31.4555 17.0639 31.6762C16.5726 31.8969 16.1333 32.2187 15.7748 32.6207C15.4163 33.0227 15.1467 33.4958 14.9834 34.0091C14.8202 34.5224 14.767 35.0644 14.8274 35.5996H15.804C16.6612 35.6018 17.5037 35.8231 18.2513 36.2425C18.9989 36.662 19.6269 37.2656 20.0755 37.9961L22.513 42.0117Z" fill="#5E6175"/>
<path d="M26.4432 50.0666L20.0254 56.4844L22.1992 58.6582L28.617 52.2404L26.4432 50.0666Z" fill="#5E6175"/>
<path d="M22.1992 50.0645L20.0254 52.2383L26.4432 58.6561L28.617 56.4823L22.1992 50.0645Z" fill="#5E6175"/>
<path d="M41.3827 50.0646L34.9648 56.4824L37.1386 58.6562L43.5565 52.2384L41.3827 50.0646Z" fill="#5E6175"/>
<path d="M37.1386 50.0645L34.9648 52.2383L41.3827 58.6561L43.5565 56.4823L37.1386 50.0645Z" fill="#5E6175"/>
<path d="M42.584 66.1758C42.4141 66.0234 38.3359 62.4238 31.9727 62.4238C25.6094 62.4238 21.5293 66.0234 21.3594 66.1758L20.8574 66.627L23.043 69.0625L23.5449 68.623C25.9471 66.7328 28.915 65.7051 31.9717 65.7051C35.0284 65.7051 37.9963 66.7328 40.3984 68.623L40.9004 69.0684L43.0859 66.627L42.584 66.1758Z" fill="#5E6175"/>
<path d="M5.65355 77.4011L2.96875 80.0859L3.79739 80.9146L6.48219 78.2298L5.65355 77.4011Z" fill="#5E6175"/>
<path d="M9.78516 79.8066H8.61328V83.6035H9.78516V79.8066Z" fill="#5E6175"/>
<path d="M3.97656 74.3301H0.179688V75.502H3.97656V74.3301Z" fill="#5E6175"/>
<path d="M59.584 67.9219H58.4121V66.75H59.584V67.9219ZM56.459 67.9219H55.2871V66.75H56.459V67.9219ZM53.334 67.9219H52.1621V66.75H53.334V67.9219ZM50.209 67.9219H49.0371V66.75H50.209V67.9219Z" fill="#A9AFC4"/>
<path d="M64.8164 66.75H63.6445V67.9219H64.8164V66.75Z" fill="#A9AFC4"/>
<path d="M72.541 67.9219H71.3691V66.75H72.541V67.9219ZM69.416 67.9219H68.2441V66.75H69.416V67.9219ZM75.6113 67.9199H74.4395V66.748H75.6113V67.9199ZM75.6113 64.7949H74.4395V63.623H75.6113V64.7949ZM75.6113 61.6699H74.4395V60.498H75.6113V61.6699ZM75.6113 58.5449H74.4395V57.373H75.6113V58.5449ZM75.6113 55.4199H74.4395V54.248H75.6113V55.4199ZM75.6113 52.2949H74.4395V51.123H75.6113V52.2949Z" fill="#A9AFC4"/>
<defs>
<linearGradient id="paint0_linear_3874_42087" x1="14.2087" y1="53.582" x2="70.2966" y2="53.582" gradientUnits="userSpaceOnUse">
<stop stop-color="#A9AFC4"/>
<stop offset="1" stop-color="#D4D8E5"/>
</linearGradient>
<linearGradient id="paint1_linear_3874_42087" x1="55.8496" y1="43.7793" x2="70.2969" y2="43.7793" gradientUnits="userSpaceOnUse">
<stop stop-color="#CACFDD"/>
<stop offset="1" stop-color="#EEF0F1"/>
</linearGradient>
</defs>
</svg>
